<svg width="15" height="17" viewBox="0 0 15 17" fill="none" xmlns="http://www.w3.org/2000/svg">
<path d="M11.6875 10.625C12.5729 10.625 13.3255 10.9349 13.9453 11.5547C14.5651 12.1745 14.875 12.9271 14.875 13.8125C14.875 14.6979 14.5651 15.4505 13.9453 16.0703C13.3255 16.6901 12.5729 17 11.6875 17C10.8021 17 10.0495 16.6901 9.42971 16.0703C8.80992 15.4505 8.50002 14.6979 8.50002 13.8125C8.50002 13.569 8.52216 13.3366 8.56643 13.1152L5.17971 10.9902C4.60419 11.4551 3.94013 11.6875 3.18752 11.6875C2.30211 11.6875 1.5495 11.3776 0.929709 10.7578C0.309918 10.138 2.19345e-05 9.38542 2.19345e-05 8.5C2.19345e-05 7.61458 0.309918 6.86198 0.929709 6.24219C1.5495 5.6224 2.30211 5.3125 3.18752 5.3125C3.94013 5.3125 4.60419 5.54492 5.17971 6.00977L8.56643 3.88477C8.52216 3.66341 8.50002 3.43099 8.50002 3.1875C8.50002 2.30208 8.80992 1.54948 9.42971 0.929688C10.0495 0.309896 10.8021 0 11.6875 0C12.5729 0 13.3255 0.309896 13.9453 0.929688C14.5651 1.54948 14.875 2.30208 14.875 3.1875C14.875 4.07292 14.5651 4.82552 13.9453 5.44531C13.3255 6.0651 12.5729 6.375 11.6875 6.375C10.9349 6.375 10.2709 6.14258 9.69533 5.67773L6.30862 7.80273C6.35289 8.02409 6.37502 8.25651 6.37502 8.5C6.37502 8.74349 6.35289 8.97591 6.30862 9.19727L9.69533 11.3223C10.2709 10.8574 10.9349 10.625 11.6875 10.625Z" fill="white"/>
</svg>
