<svg width="14" height="14" viewBox="0 0 14 14" fill="none" xmlns="http://www.w3.org/2000/svg">
<path d="M12.4219 7.85156C12.8613 8.4082 13.125 9.11133 13.0957 9.84375C13.0957 11.6602 11.6309 13.125 9.81445 13.125C9.08203 13.125 8.3789 12.8906 7.82226 12.4512C7.41211 12.5391 6.97265 12.5977 6.5332 12.5977C3.22265 12.5977 0.52734 9.90234 0.52734 6.5625C0.52734 6.15234 0.585934 5.71289 0.673824 5.30273C0.234371 4.74609 -3.8147e-06 4.04297 -3.8147e-06 3.28125C-3.8147e-06 1.49414 1.46484 0 3.28125 0C4.01367 0 4.71679 0.263672 5.27343 0.703125C5.68359 0.615234 6.12304 0.556641 6.5625 0.556641C9.87304 0.556641 12.5684 3.25195 12.5684 6.5625C12.5684 7.00195 12.5098 7.44141 12.4219 7.85156ZM6.73828 10.5469C8.34961 10.5469 10.0195 9.72656 10.0195 7.99805C10.0195 6.50391 8.55468 6.00586 7.35351 5.74219C5.94726 5.39062 5.33203 5.33203 5.33203 4.77539C5.33203 4.30664 5.80078 4.10156 6.5625 4.10156C7.91015 4.10156 7.93945 5.09766 8.75976 5.09766C9.3164 5.09766 9.63867 4.6582 9.63867 4.16016C9.63867 3.16406 7.99804 2.51953 6.38671 2.51953C4.92187 2.51953 3.19336 3.16406 3.19336 4.92188C3.19336 6.82617 4.83398 7.00195 6.65039 7.4707C7.41211 7.64648 7.88086 7.73438 7.88086 8.29102C7.88086 8.73047 7.38281 9.05273 6.65039 9.05273C5.06836 9.05273 4.98046 7.73438 4.07226 7.73438C3.45703 7.73438 3.19336 8.17383 3.19336 8.64258C3.19336 9.69727 4.80468 10.5469 6.73828 10.5469Z" fill="white"/>
<a href="https://www.figma.com/design/Nx4sNsAeWJfmVVOXuDSmxJ?node-id=2-2093">
<rect fill="black" fill-opacity="0" x="0.356625" y="-1.125" width="13.125" height="17.25"/>
</a>
</svg>
