<svg width="25" height="28" viewBox="0 0 25 28" fill="none" xmlns="http://www.w3.org/2000/svg">
<path d="M17.1719 11.9766C15.8229 13.3255 14.1823 14 12.25 14C10.3177 14 8.65885 13.3255 7.27344 11.9766C5.92448 10.5911 5.25 8.93229 5.25 7C5.25 5.06771 5.92448 3.42708 7.27344 2.07812C8.65885 0.692708 10.3177 0 12.25 0C14.1823 0 15.8229 0.692708 17.1719 2.07812C18.5573 3.42708 19.25 5.06771 19.25 7C19.25 8.93229 18.5573 10.5911 17.1719 11.9766ZM17.1719 15.75C19.1771 15.75 20.8906 16.4792 22.3125 17.9375C23.7708 19.3594 24.5 21.0729 24.5 23.0781V25.375C24.5 26.1042 24.2448 26.724 23.7344 27.2344C23.224 27.7448 22.6042 28 21.875 28H2.625C1.89583 28 1.27604 27.7448 0.765625 27.2344C0.255208 26.724 0 26.1042 0 25.375V23.0781C0 21.0729 0.710938 19.3594 2.13281 17.9375C3.59115 16.4792 5.32292 15.75 7.32812 15.75H8.25781C9.53385 16.3333 10.8646 16.625 12.25 16.625C13.6354 16.625 14.9661 16.3333 16.2422 15.75H17.1719Z" fill="#333931"/>
<a href="https://www.figma.com/design/FQMCtNuVqsHCfAIsCKE35l/CourseHub---University--Online-Courses--School---Education-Figma-Template--Community-?node-id=6-1519">
<rect fill="black" fill-opacity="0" width="24.5" height="28"/>
</a>
</svg>
